<svg width="48" height="24" viewBox="0 0 48 24" fill="none" xmlns="http://www.w3.org/2000/svg">
<path d="M6.98596 24C3.89399 24 1.97114 20.6418 3.5363 17.9752L11.1813 4.9504C12.6177 2.50318 15.243 1 18.0806 1H44C46.2091 1 48 2.79086 48 5V20C48 22.2091 46.2091 24 44 24H6.98596Z" fill="#16A086"/>
<path d="M23.4877 9.719C23.4317 9.817 23.371 9.88933 23.3057 9.936C23.245 9.978 23.168 9.999 23.0747 9.999C22.9767 9.999 22.8694 9.964 22.7527 9.894C22.6407 9.81933 22.5054 9.73767 22.3467 9.649C22.188 9.56033 22.0014 9.481 21.7867 9.411C21.5767 9.33633 21.327 9.299 21.0377 9.299C20.7764 9.299 20.5477 9.33167 20.3517 9.397C20.1557 9.45767 19.99 9.544 19.8547 9.656C19.724 9.768 19.626 9.90333 19.5607 10.062C19.4954 10.216 19.4627 10.3863 19.4627 10.573C19.4627 10.811 19.528 11.0093 19.6587 11.168C19.794 11.3267 19.9714 11.462 20.1907 11.574C20.41 11.686 20.6597 11.7863 20.9397 11.875C21.2197 11.9637 21.5067 12.0593 21.8007 12.162C22.0947 12.26 22.3817 12.3767 22.6617 12.512C22.9417 12.6427 23.1914 12.8107 23.4107 13.016C23.63 13.2167 23.805 13.464 23.9357 13.758C24.071 14.052 24.1387 14.409 24.1387 14.829C24.1387 15.2863 24.0594 15.7157 23.9007 16.117C23.7467 16.5137 23.518 16.8613 23.2147 17.16C22.916 17.454 22.5497 17.6873 22.1157 17.86C21.6817 18.028 21.1847 18.112 20.6247 18.112C20.3027 18.112 19.9854 18.0793 19.6727 18.014C19.36 17.9533 19.059 17.8647 18.7697 17.748C18.485 17.6313 18.2167 17.4913 17.9647 17.328C17.7127 17.1647 17.4887 16.9827 17.2927 16.782L17.8457 15.879C17.8924 15.8137 17.953 15.76 18.0277 15.718C18.1024 15.6713 18.1817 15.648 18.2657 15.648C18.3824 15.648 18.5084 15.697 18.6437 15.795C18.779 15.8883 18.94 15.9933 19.1267 16.11C19.3134 16.2267 19.5304 16.334 19.7777 16.432C20.0297 16.5253 20.3307 16.572 20.6807 16.572C21.2174 16.572 21.6327 16.446 21.9267 16.194C22.2207 15.9373 22.3677 15.571 22.3677 15.095C22.3677 14.829 22.3 14.612 22.1647 14.444C22.034 14.276 21.859 14.136 21.6397 14.024C21.4204 13.9073 21.1707 13.8093 20.8907 13.73C20.6107 13.6507 20.326 13.5643 20.0367 13.471C19.7474 13.3777 19.4627 13.2657 19.1827 13.135C18.9027 13.0043 18.653 12.834 18.4337 12.624C18.2144 12.414 18.037 12.1527 17.9017 11.84C17.771 11.5227 17.7057 11.133 17.7057 10.671C17.7057 10.3023 17.778 9.943 17.9227 9.593C18.072 9.243 18.2867 8.93267 18.5667 8.662C18.8467 8.39133 19.192 8.17433 19.6027 8.011C20.0134 7.84767 20.4847 7.766 21.0167 7.766C21.614 7.766 22.1647 7.85933 22.6687 8.046C23.1727 8.23267 23.602 8.494 23.9567 8.83L23.4877 9.719ZM34.2492 7.878L30.1612 18H28.4602L24.3722 7.878H25.8842C26.0476 7.878 26.1806 7.91767 26.2832 7.997C26.3859 8.07633 26.4629 8.179 26.5142 8.305L28.9012 14.479C28.9806 14.6797 29.0552 14.9013 29.1252 15.144C29.1999 15.382 29.2699 15.6317 29.3352 15.893C29.3912 15.6317 29.4519 15.382 29.5172 15.144C29.5826 14.9013 29.6549 14.6797 29.7342 14.479L32.1072 8.305C32.1446 8.19767 32.2169 8.09967 32.3242 8.011C32.4362 7.92233 32.5716 7.878 32.7302 7.878H34.2492ZM43.3128 12.925V17.02C42.7995 17.398 42.2511 17.6757 41.6678 17.853C41.0891 18.0257 40.4685 18.112 39.8058 18.112C38.9798 18.112 38.2308 17.9837 37.5588 17.727C36.8915 17.4703 36.3198 17.1133 35.8438 16.656C35.3725 16.1987 35.0085 15.6527 34.7518 15.018C34.4951 14.3833 34.3668 13.6903 34.3668 12.939C34.3668 12.1783 34.4905 11.4807 34.7378 10.846C34.9851 10.2113 35.3351 9.66533 35.7878 9.208C36.2451 8.75067 36.7981 8.396 37.4468 8.144C38.0955 7.892 38.8235 7.766 39.6308 7.766C40.0415 7.766 40.4241 7.79867 40.7788 7.864C41.1381 7.92933 41.4695 8.02033 41.7728 8.137C42.0808 8.249 42.3608 8.38667 42.6128 8.55C42.8648 8.71333 43.0958 8.893 43.3058 9.089L42.7668 9.943C42.6828 10.0783 42.5731 10.1623 42.4378 10.195C42.3025 10.223 42.1555 10.188 41.9968 10.09C41.8428 10.0013 41.6888 9.91267 41.5348 9.824C41.3808 9.73533 41.2081 9.65833 41.0168 9.593C40.8301 9.52767 40.6178 9.474 40.3798 9.432C40.1465 9.39 39.8758 9.369 39.5678 9.369C39.0685 9.369 38.6158 9.453 38.2098 9.621C37.8085 9.789 37.4655 10.0293 37.1808 10.342C36.8961 10.6547 36.6768 11.0303 36.5228 11.469C36.3688 11.9077 36.2918 12.3977 36.2918 12.939C36.2918 13.5177 36.3735 14.0357 36.5368 14.493C36.7048 14.9457 36.9381 15.3307 37.2368 15.648C37.5401 15.9607 37.9041 16.201 38.3288 16.369C38.7535 16.5323 39.2271 16.614 39.7498 16.614C40.1231 16.614 40.4568 16.5743 40.7508 16.495C41.0448 16.4157 41.3318 16.3083 41.6118 16.173V14.339H40.3378C40.2165 14.339 40.1208 14.3063 40.0508 14.241C39.9855 14.171 39.9528 14.087 39.9528 13.989V12.925H43.3128Z" fill="white"/>
</svg>
